<?xml version="1.0" encoding="UTF-8" standalone="no"?>
<svg width="499px" height="132px" viewBox="0 0 499 132" version="1.1" xmlns="http://www.w3.org/2000/svg" xmlns:xlink="http://www.w3.org/1999/xlink">
    <!-- Generator: Sketch 40 (33762) - http://www.bohemiancoding.com/sketch -->
    <title>Logo</title>
    <desc>Created with Sketch.</desc>
    <defs>
        <polygon id="path-1" points="41.3833333 43.3333333 41.3833333 2 0 2 0 43.3333333"></polygon>
    </defs>
    <g id="Page-1" stroke="none" stroke-width="1" fill="none" fill-rule="evenodd">
        <g id="Logo">
            <path d="M142,58 L122.666667,58 C121.666667,58 121,58.6666667 121,59.6666667 C121,86.6666667 99,108.666667 72,108.666667 C45,108.666667 22.6666667,86.6666667 22.6666667,59.6666667 C22.6666667,58.6666667 22,58 21,58 L1.66666667,58 C0.666666667,58 0,58.6666667 0,59.6666667 C0,99.3333333 32.3333333,131.666667 72,131.666667 C111.666667,131.666667 144,99.3333333 144,59.6666667 C143.666667,58.6666667 143,58 142,58" id="Fill-1" fill="#2CA8D7"></path>
            <path d="M68.3333333,96.3333333 C69.6666667,96.3333333 71,96.6666667 72,96.6666667 C78.6666667,96.6666667 85.3333333,94.6666667 91,91.3333333 L91.3333333,91 C91.6666667,91 91.6666667,90.6666667 92,90.6666667 L92.3333333,90.3333333 C102,83.6666667 107.666667,73 107.666667,61.6666667 L107.666667,61 C107.333333,50.6666667 100.333333,41 94.6666667,33 L94.3333333,32.6666667 C86.6666667,22 80.3333333,13.6666667 88,4.33333333 C88.6666667,3.66666667 88.3333333,2.66666667 88,2.33333333 C87.3333333,1.66666667 86.6666667,1.66666667 86,2 C86,2 78,6.66666667 70.6666667,15 C64.6666667,22 57.6666667,33 59,47 C56.3333333,44.6666667 53.3333333,40 54.6666667,32 C54.6666667,31.3333333 54.6666667,30.6666667 54,30.3333333 C53.6666667,30 53,30 52.3333333,30 C52,30.3333333 48,32 44.3333333,36.6666667 C40.6666667,41 36.6666667,48.6666667 36.3333333,60.6666667 L36.3333333,61.3333333 C36.3333333,79.3333333 50,94.6666667 68.3333333,96.3333333" id="Fill-3" fill="#2CA8D7"></path>
            <path d="M182.333333,47.3333333 C181.666667,45.6666667 182.333333,44.3333333 184.333333,43.6666667 L186.666667,43 C188.333333,42.6666667 189.333333,43.3333333 190.333333,45 C192.333333,48.3333333 196.333333,51 202,51 C209,51 213.333333,47.6666667 213.333333,42.6666667 C213.333333,38.3333333 210,36 205.333333,34.3333333 L197,31.6666667 C186.666667,28.3333333 184,22 184,17 C184,7.33333333 192.333333,1.66666667 202,1.66666667 C210.666667,1.66666667 216.666667,6 219.333333,12 C220,13.6666667 219.333333,15 217.333333,15.6666667 L215.333333,16.3333333 C213.666667,16.6666667 212.333333,16.3333333 211.666667,14.6666667 C210,10.6666667 206.666667,9 202,9 C196.666667,9 192.333333,12 192.333333,16.6666667 C192.333333,19 193,22 199.333333,24.3333333 L207.666667,27.3333333 C217,30.3333333 221.333333,36.3333333 221.333333,42.3333333 C221.333333,52.3333333 213.333333,58.3333333 202,58.3333333 C192,58.3333333 185.333333,53.6666667 182.333333,47.3333333" id="Fill-5" fill="#0B2C35"></path>
            <path d="M226.333333,38.3333333 C226.333333,26.6666667 234.333333,17.3333333 248.666667,17.3333333 C251.666667,17.3333333 256,18 260.666667,20.6666667 C262.333333,21.6666667 262.666667,23.3333333 261.333333,24.6666667 L260.666667,25.3333333 C259.333333,26.6666667 258.333333,26.6666667 256.666667,26 C253.333333,24.3333333 250,24.3333333 249,24.3333333 C240.666667,24.3333333 234.666667,30 234.666667,37.6666667 C234.666667,45.3333333 240.666667,51.3333333 249,51.3333333 C250,51.3333333 253.333333,51.3333333 256.666667,49.6666667 C258.333333,48.6666667 259.666667,49 260.666667,50.3333333 L261.333333,51 C262.333333,52.3333333 262,54.3333333 259.333333,55.6666667 C255.333333,57.6666667 251.666667,58.3333333 248.666667,58.3333333 C234.666667,58.3333333 226.333333,49.3333333 226.333333,38.3333333" id="Fill-7" fill="#0B2C35"></path>
            <path d="M268,54.6666667 L268,21 C268,19.3333333 269,18 271,18 L273.333333,18 C275,18 276.333333,19 276.333333,21 L276.333333,27 C277.666667,20.6666667 282,17.3333333 287,17.3333333 L288.666667,17.3333333 C290.333333,17.6666667 290.666667,19 290.666667,20.3333333 L290.666667,22.6666667 C290.666667,24.6666667 290,25.3333333 288.666667,25 C288,25 287.333333,24.6666667 286.666667,24.6666667 C283.666667,24.6666667 276.666667,26 276.666667,42.3333333 L276.666667,54.6666667 C276.666667,56.3333333 275.666667,57.6666667 273.666667,57.6666667 L271.333333,57.6666667 C269.333333,57.6666667 268,56.3333333 268,54.6666667" id="Fill-9" fill="#0B2C35"></path>
            <path d="M297.333333,54.6666667 L297.333333,21 C297.333333,19.3333333 298.333333,18 300.333333,18 L302.666667,18 C304.333333,18 305.666667,19 305.666667,21 L305.666667,54.6666667 C305.666667,56.3333333 304.666667,57.6666667 302.666667,57.6666667 L300.333333,57.6666667 C298.666667,57.6666667 297.333333,56.3333333 297.333333,54.6666667 M296,5.66666667 C296,2.66666667 298.333333,-2.36817976e-14 301.333333,-2.36817976e-14 C304.666667,-2.36817976e-14 307,2.33333333 307,5.66666667 C307,8.66666667 304.666667,11 301.333333,11 C298.333333,11 296,8.66666667 296,5.66666667" id="Fill-11" fill="#0B2C35"></path>
            <path d="M346.666667,37.6666667 C346.666667,30.3333333 342,24 334,24 C326.333333,24 321,29.6666667 321,37.6666667 C321,45.3333333 326.333333,51.3333333 334,51.3333333 C342.333333,51.3333333 346.666667,45 346.666667,37.6666667 M313,73 L313,21 C313,19.3333333 314,18 316,18 L318.333333,18 C320,18 321.333333,19 321.333333,21 L321.333333,24.3333333 C325,19 330.333333,17.3333333 335.666667,17.3333333 C347.333333,17.3333333 355.333333,26.6666667 355.333333,38 C355.333333,49.3333333 347.666667,58.6666667 335.666667,58.6666667 C330.333333,58.6666667 325.333333,57 321.333333,51.6666667 L321.333333,73.3333333 C321.333333,75 320.333333,76.3333333 318.333333,76.3333333 L316,76.3333333 C314,75.6666667 313,74.6666667 313,73" id="Fill-13" fill="#0B2C35"></path>
            <path d="M361.666667,45 L361.666667,24.3333333 L356.666667,24.3333333 C355.666667,24.3333333 355,23.6666667 355,22.6666667 L355,19.6666667 C355,18.6666667 355.666667,18 356.666667,18 L361.666667,18 L363,9 C363.333333,7.66666667 364,6.66666667 365.666667,6.66666667 L367.333333,6.66666667 C368.666667,6.66666667 369.666667,7.66666667 369.666667,9 L369.666667,18 L380.333333,18 C381.333333,18 382,18.6666667 382,19.6666667 L382,22.6666667 C382,23.6666667 381.333333,24.3333333 380.333333,24.3333333 L369.666667,24.3333333 L369.666667,45.3333333 C369.666667,49.6666667 371.666667,51.3333333 374.333333,51.3333333 C376.666667,51.3333333 379,50 379,47 L379,45.6666667 C379,44.6666667 379.333333,44 380.333333,44 L384,44 C385,44 385.666667,44.3333333 385.666667,45.3333333 C386,46.6666667 386,48.3333333 386,48.3333333 C386,54.3333333 381.666667,58.6666667 374.333333,58.6666667 C368,58.3333333 361.666667,55 361.666667,45" id="Fill-15" fill="#0B2C35"></path>
            <path d="M389.333333,40.3333333 L389.333333,21 C389.333333,19.3333333 390.333333,18 392.333333,18 L394.666667,18 C396.333333,18 397.666667,19 397.666667,21 L397.666667,40.3333333 C397.666667,48.3333333 401.333333,51.3333333 405.333333,51.3333333 C409.333333,51.3333333 417.666667,48.3333333 417.666667,36.6666667 L417.666667,21 C417.666667,19.3333333 418.666667,18 420.666667,18 L423,18 C424.666667,18 426,19 426,21 L426,54.6666667 C426,56.3333333 425,57.6666667 423,57.6666667 L420.666667,57.6666667 C419,57.6666667 417.666667,56.6666667 417.666667,54.6666667 L417.666667,49.6666667 C416,55.3333333 411,58.3333333 404.666667,58.3333333 C395.666667,58.3333333 389.333333,52.6666667 389.333333,40.3333333" id="Fill-17" fill="#0B2C35"></path>
            <path d="M433,54.6666667 L433,21 C433,19.3333333 434,18 436,18 L438.333333,18 C440,18 441.333333,19 441.333333,21 L441.333333,27 C442.666667,20.6666667 447,17.3333333 452,17.3333333 L453.666667,17.3333333 C455.333333,17.6666667 455.666667,19 455.666667,20.3333333 L455.666667,22.6666667 C455.666667,24.6666667 455,25.3333333 453.666667,25 C453,25 452.333333,24.6666667 451.666667,24.6666667 C448.666667,24.6666667 441.666667,26 441.666667,42.3333333 L441.666667,54.6666667 C441.666667,56.3333333 440.666667,57.6666667 438.666667,57.6666667 L436.333333,57.6666667 C434,57.6666667 433,56.3333333 433,54.6666667" id="Fill-19" fill="#0B2C35"></path>
            <g id="Group-23" transform="translate(456.666667, 15.333333)">
                <mask id="mask-2" fill="white">
                    <use xlink:href="#path-1"></use>
                </mask>
                <g id="Clip-22"></g>
                <path d="M33.3333333,17.3333333 C31.3333333,10.3333333 25.6666667,8.66666667 21.3333333,8.66666667 C16.6666667,8.66666667 11,10.3333333 8.66666667,17.3333333 L33.3333333,17.3333333 Z M0,22.6666667 C0,11 9,2 21.3333333,2 C31.3333333,2 40.3333333,8 41.3333333,20.6666667 C41.6666667,22.6666667 40.3333333,23.6666667 38.6666667,23.6666667 L8,23.6666667 C7.66666667,31 13.6666667,36.3333333 22.3333333,36.3333333 C26.3333333,36.3333333 29.6666667,35.3333333 33,33 C34.3333333,32 35.6666667,32 37,33.3333333 L37.6666667,34 C39,35.3333333 39,37 37,38.3333333 C32.3333333,42 27,43.3333333 22.3333333,43.3333333 C8.66666667,43 0,33.6666667 0,22.6666667 L0,22.6666667 Z" id="Fill-21" fill="#0B2C35" mask="url(#mask-2)"></path>
            </g>
            <path d="M182.333333,110.333333 L182.333333,78.6666667 C182.333333,77 183.333333,75.6666667 185.333333,75.6666667 L188,75.6666667 C189.666667,75.6666667 191,76.6666667 191,78.6666667 L191,110.333333 C191,119.666667 197.333333,124.333333 204.666667,124.333333 C212,124.333333 218.333333,119.666667 218.333333,110.333333 L218.333333,78.6666667 C218.333333,77 219.333333,75.6666667 221.333333,75.6666667 L223.333333,75.6666667 C225,75.6666667 226.333333,76.6666667 226.333333,78.6666667 L226.333333,110.333333 C226.333333,124.333333 216.333333,131.666667 204.333333,131.666667 C192.666667,131.666667 182.333333,124.333333 182.333333,110.333333" id="Fill-24" fill="#0B2C35"></path>
            <path d="M233.333333,128 L233.333333,94.3333333 C233.333333,92.6666667 234.333333,91.3333333 236.333333,91.3333333 L238.666667,91.3333333 C240.333333,91.3333333 241.666667,92.3333333 241.666667,94.3333333 L241.666667,99.3333333 C243.333333,93.6666667 248.333333,90.6666667 254.666667,90.6666667 C263.333333,90.6666667 269.666667,96.3333333 269.666667,108.666667 L269.666667,128 C269.666667,129.666667 268.666667,131 266.666667,131 L264.333333,131 C262.666667,131 261.333333,130 261.333333,128 L261.333333,108.666667 C261.333333,100.666667 257.666667,97.6666667 253.333333,97.6666667 C249.333333,97.6666667 241,100.333333 241,112.333333 L241,128 C241,129.666667 240,131 238,131 L235.666667,131 C234.333333,131 233.333333,130 233.333333,128" id="Fill-26" fill="#0B2C35"></path>
            <path d="M276.333333,79 C276.333333,76 278.666667,73.3333333 281.666667,73.3333333 C285,73.3333333 287.333333,75.6666667 287.333333,79 C287.333333,82 285,84.3333333 281.666667,84.3333333 C278.333333,84.3333333 276.333333,82 276.333333,79" id="Fill-28" fill="#0B2C35"></path>
            <path d="M277.666667,128 L277.666667,94.3333333 C277.666667,92.6666667 278.666667,91.3333333 280.666667,91.3333333 L283,91.3333333 C284.666667,91.3333333 286,92.3333333 286,94.3333333 L286,128 C286,129.666667 285,131 283,131 L280.666667,131 C278.666667,131 277.666667,130 277.666667,128" id="Fill-30" fill="#0B2C35"></path>
            <path d="M325,111.333333 C325,104 319.333333,97.6666667 312,97.6666667 C305,97.6666667 299.333333,103.666667 299.333333,111.333333 C299.333333,118.666667 305,124.666667 312,124.666667 C319.333333,124.666667 325,118.666667 325,111.333333 M291.333333,111.333333 C291.333333,100 300.666667,90.6666667 312,90.6666667 C323.666667,90.6666667 333,100 333,111.333333 C333,122.666667 323.666667,132 312,132 C300.666667,131.666667 291.333333,122.666667 291.333333,111.333333" id="Fill-32" fill="#0B2C35"></path>
            <path d="M338.333333,128 L338.333333,94.3333333 C338.333333,92.6666667 339.333333,91.3333333 341.333333,91.3333333 L343.666667,91.3333333 C345.333333,91.3333333 346.666667,92.3333333 346.666667,94.3333333 L346.666667,99.3333333 C348.333333,93.6666667 353.333333,90.6666667 359.666667,90.6666667 C368.333333,90.6666667 374.666667,96.3333333 374.666667,108.666667 L374.666667,128 C374.666667,129.666667 373.666667,131 371.666667,131 L369.333333,131 C367.666667,131 366.333333,130 366.333333,128 L366.333333,108.666667 C366.333333,100.666667 362.666667,97.6666667 358.333333,97.6666667 C354.333333,97.6666667 346,100.333333 346,112.333333 L346,128 C346,129.666667 345,131 343,131 L340.666667,131 C339.333333,131 338.333333,130 338.333333,128" id="Fill-34" fill="#0B2C35"></path>
        </g>
    </g>
</svg>